# AST/ASF file generated using VICON BodyLanguage
# -----------------------------------------------
:version 1.10
:name VICON
:units
  mass 1.0
  length 0.45
  angle deg
:documentation
   .ast/.asf automatically generated from VICON data using
   VICON BodyBuilder and BodyLanguage model FoxedUp or BRILLIANT.MOD
:root
   order TX TY TZ RX RY RZ
   axis XYZ
   position 0 0 0  
   orientation 0 0 0 
:bonedata
  begin
     id 1 
     name lhipjoint
     direction 0.567725 -0.736092 0.368589 
     length 2.42353 
     axis 0 0 0  XYZ
  end
  begin
     id 2 
     name lfemur
     direction 0.34202 -0.939693 0  
     length 7.24894  
     axis 0 0 20  XYZ
    dof rx ry rz
    limits (-160.0 20.0)
           (-70.0 70.0)
           (-60.0 70.0)
  end
  begin
     id 3 
     name ltibia
     direction 0.34202 -0.939693 0   
     length 7.6997   
     axis 0 0 20   XYZ
    dof rx
    limits (-10.0 170.0)
  end
  begin
     id 4 
     name lfoot
     direction 0.100767 -0.276854 0.955614   
     length 2.37556   
     axis -90 7.62852e-016 20   XYZ
    dof rx rz
    limits (-45.0 90.0)
           (-70.0 20.0)
  end
  begin
     id 5 
     name ltoes
     direction 1.53592e-011 -4.21894e-011 1   
     length 1.18363   
     axis -90 7.62852e-016 20   XYZ
    dof rx
    limits (-90.0 20.0)
  end
  begin
     id 6 
     name rhipjoint
     direction -0.556459 -0.742938 0.372017   
     length 2.4012  
     axis 0 0 0  XYZ 
  end
  begin
     id 7 
     name rfemur
     direction -0.34202 -0.939693 0   
     length 7.5119   
     axis 0 0 -20   XYZ
    dof rx ry rz
    limits (-160.0 20.0)
           (-70.0 70.0)
           (-70.0 60.0)
  end
  begin
     id 8 
     name rtibia
     direction -0.34202 -0.939693 0   
     length 7.50155   
     axis 0 0 -20   XYZ
    dof rx
    limits (-10.0 170.0)
 end
 begin
     id 9 
     name rfoot
     direction -0.118427 -0.325376 0.938139   
     length 2.32487  
     axis -90 -7.62852e-016 -20   XYZ
    dof rx rz
    limits (-45.0 90.0)
           (-20.0 70.0)
  end
  begin
     id 10 
     name rtoes
     direction -1.53525e-011 -4.21868e-011 1   
     length 1.15233   
     axis -90 -7.62852e-016 -20   XYZ
    dof rx
    limits (-90.0 20.0)
  end
  begin
     id 11 
     name lowerback
     direction 0.0287568 0.999577 -0.00434502   
     length 2.15243   
     axis 0 0 0   XYZ
    dof rx ry rz
    limits (-20.0 45.0)
           (-30.0 30.0)
           (-30.0 30.0)
  end
  begin
     id 12 
     name upperback
     direction 0.0294009 0.99956 0.00404628   
     length 2.15427   
     axis 0 0 0   XYZ
    dof rx ry rz
    limits (-20.0 45.0)
           (-30.0 30.0)
           (-30.0 30.0)
  end
  begin
     id 13 
     name thorax
     direction 0.0151014 0.999868 0.0059419   
     length 2.14898   
     axis 0 0 0   XYZ
    dof rx ry rz
    limits (-20.0 45.0)
           (-30.0 30.0)
           (-30.0 30.0)
  end
  begin
     id 14 
     name lowerneck
     direction -0.0249197 0.989906 0.139515   
     length 1.6861   
     axis 0 0 0   XYZ
    dof rx ry rz
    limits (-20.0 45.0)
           (-30.0 30.0)
           (-30.0 30.0)
  end
  begin
     id 15 
     name upperneck
     direction 0.0438463 0.988795 -0.142693   
     length 1.71276   
     axis 0 0 0   XYZ
    dof rx ry rz
    limits (-20.0 45.0)
           (-30.0 30.0)
           (-30.0 30.0)
  end
  begin
     id 16
     name head
     direction 0.0148499 0.997845 -0.0639186  
     length 1.7209  
     axis 0 0 0   XYZ
    dof rx ry rz
    limits (-20.0 45.0)
           (-30.0 30.0)
           (-30.0 30.0)
  end
  begin
     id 17 
     name lclavicle
     direction 0.940298 0.323464 -0.105876  
     length 3.9048  
     axis 0 0 0   XYZ
    dof ry rz
    limits (-20.0 10.0)
           (0.0 20.0)
  end
  begin
     id 18 
     name lhumerus
     direction 1 -4.48954e-011 -4.9675e-028   
     length 4.6851   
     axis 180 -30 -90   XYZ
    dof rx ry rz
    limits (-60.0 90.0)
           (-90.0 90.0)
           (-90.0 90.0)
  end
  begin
     id 19
     name lradius
     direction 1 -4.48992e-011 -1.03359e-026   
     length 3.39626   
     axis 180 -30 -90   XYZ
    dof rx
    limits (-10.0 170.0)
  end
  begin
     id 20
     name lwrist
     direction 1 -4.48906e-011 -1.67336e-026   
     length 1.69813   
     axis 9.90442e-015 90 90   XYZ
    dof ry
    limits (-180.0 0.0)
 end
  begin
     id 21 
     name lhand
     direction 1 -4.49006e-011 -3.34673e-026   
     length 0.486078   
     axis 2.1355e-014 90 90   XYZ
    dof rx rz
    limits (-90.0 90.0)
           (-45.0 45.0)
  end
  begin
     id 22 
     name lfingers
     direction 1 -4.48992e-011 -6.69345e-026   
     length 0.391889   
     axis 4.27099e-014 90 90   XYZ
    dof rx
    limits (0.0 90.0)
  end
  begin
     id 23
     name lthumb
     direction 0.707107 -6.34926e-011 0.707107   
     length 0.562676   
     axis -90 45 2.85299e-015   XYZ
    dof rx rz
    limits (-45.0 45.0)
           (-45.0 45.0)
  end
  begin
     id 24 
     name rclavicle
     direction -0.882459 0.414895 -0.221648   
     length 3.44646  
     axis 0 0 0   XYZ 
    dof ry rz
    limits (-10.0 20.0)
           (-20.0 0.0)
  end
  begin
     id 25 
     name rhumerus
     direction -1 -4.48962e-011 -2.37984e-027  
     length 5.55576   
     axis 180 30 90   XYZ
    dof rx ry rz
    limits (-90.0 60.0)
           (-90.0 90.0)
           (-90.0 90.0)
  end
  begin
     id 26 
     name rradius
     direction -1 -4.48982e-011 -6.86791e-027   
     length 3.32774   
     axis 180 30 90   XYZ
    dof rx
    limits (-10.0 170.0)
  end
  begin
     id 27 
     name rwrist
     direction -1 -4.48961e-011 -1.67336e-026   
     length 1.66387   
     axis 9.90442e-015 -90 -90   XYZ
    dof ry
    limits (-180.0 0.0)
  end
  begin
     id 28
     name rhand
     direction -1 -4.4897e-011 -3.34673e-026   
     length 0.507628   
     axis 2.1355e-014 -90 -90   XYZ
    dof rx rz
    limits (-90.0 90.0)
           (-45.0 45.0)
  end
  begin
     id 29
     name rfingers
     direction -1 -4.48854e-011 -6.69345e-026   
     length 0.409263   
     axis 4.27099e-014 -90 -90   XYZ
    dof rx
    limits (0.0 90.0)
  end
  begin
     id 30
     name rthumb
     direction -0.707107 -6.34913e-011 0.707107   
     length 0.587622   
     axis -90 -45 -2.85299e-015   XYZ
    dof rx rz
    limits (-45.0 45.0)
           (-45.0 45.0)
  end
:hierarchy
  begin
    root lhipjoint rhipjoint lowerback
    lhipjoint lfemur
    lfemur ltibia
    ltibia lfoot
    lfoot ltoes
    rhipjoint rfemur
    rfemur rtibia
    rtibia rfoot
    rfoot rtoes
    lowerback upperback
    upperback thorax
    thorax lowerneck lclavicle rclavicle
    lowerneck upperneck
    upperneck head
    lclavicle lhumerus
    lhumerus lradius
    lradius lwrist
    lwrist lhand lthumb
    lhand lfingers
    rclavicle rhumerus
    rhumerus rradius
    rradius rwrist
    rwrist rhand rthumb
    rhand rfingers
  end

#!OML:ASF E:\motion texture\Top Level 1\Subject 1\Session 1\male.ASF
:FULLY-SPECIFIED
:DEGREES
118
root 40.1564 17.2497 5.41148 81.6862 -83.3445 -69.0852
lowerback -1.29262 1.23808 5.10446
upperback -0.183423 1.57861 -0.378721
thorax 0.68515 0.802136 -3.21974
lowerneck -21.581 -2.08253 -5.94174
upperneck 11.5751 -2.3167 7.27163
head 7.21706 -0.69572 3.08382
rclavicle 8.84592e-015 2.94201e-014
rhumerus -22.6383 -14.8455 -86.1868
rradius 24.2091
rwrist 20.6903
rhand -14.7991 -26.7664
rfingers 7.12502
rthumb 11.3585 -56.4388
lclavicle 8.84592e-015 2.94201e-014
lhumerus -34.2007 33.7755 71.1235
lradius 21.2399
lwrist -38.5279
lhand -14.9431 22.1347
lfingers 7.12502
lthumb 11.2197 51.8147
rfemur -3.58811 0.479094 27.7956
rtibia 30.4008
rfoot -14.5052 -10.9768
rtoes 3.29239
lfemur -37.2819 -2.72375 -7.60712
ltibia 20.0457
lfoot -3.77356 7.6861
ltoes -3.65897
119
root 40.0131 17.2608 5.43666 80.6224 -83.4783 -68.0896
lowerback -1.2675 1.22514 4.95056
upperback -0.171726 1.56556 -0.436827
thorax 0.67936 0.795639 -3.19399
lowerneck -21.5209 -2.09321 -5.93141
upperneck 11.5093 -2.34391 7.32575
head 7.18838 -0.70485 3.09592
rclavicle -5.76476e-015 -1.27222e-014
rhumerus -22.6576 -15.0836 -86.1412
rradius 24.105
rwrist 20.871
rhand -14.7897 -26.7549
rfingers 7.12502
rthumb 11.3676 -56.4268
lclavicle -5.76476e-015 -1.27222e-014
lhumerus -34.1468 33.7159 71.133
lradius 21.2043
lwrist -38.574
lhand -14.8713 22.1358
lfingers 7.12502
lthumb 11.2889 51.812
rfemur -4.11682 0.202222 27.4246
rtibia 31.8259
rfoot -13.3208 -11.0558
rtoes 2.64114
lfemur -36.8891 -2.85848 -7.9939
ltibia 20.2936
lfoot -3.69307 7.52843
ltoes -3.43356
120
root 39.869 17.2727 5.46199 79.4996 -83.6153 -67.041
lowerback -1.24221 1.21138 4.7906
upperback -0.158024 1.55135 -0.495098
thorax 0.67531 0.788592 -3.16497
lowerneck -21.4582 -2.10405 -5.92178
upperneck 11.4409 -2.37128 7.38118
head 7.15852 -0.714097 3.10851
rclavicle 6.06293e-015 -6.36111e-015
rhumerus -22.6795 -15.298 -86.1017
rradius 24.0167
rwrist 21.0363
rhand -14.7826 -26.743
rfingers 7.12502
rthumb 11.3744 -56.4146
lclavicle 6.06293e-015 -6.36111e-015
lhumerus -34.0684 33.6196 71.1737
lradius 21.184
lwrist -38.5955
lhand -14.7991 22.1211
lfingers 7.12502
lthumb 11.3585 51.7935
rfemur -4.69307 -0.0796261 27.0466
rtibia 33.2906
rfoot -12.0953 -11.1606
rtoes 2.08758
lfemur -36.4714 -2.99878 -8.38736
ltibia 20.5385
lfoot -3.63228 7.37338
ltoes -3.22415
121
root 39.7244 17.2853 5.4874 78.3237 -83.7549 -65.9454
lowerback -1.21471 1.19655 4.6256
upperback -0.14315 1.53574 -0.553273
thorax 0.671014 0.780813 -3.13304
lowerneck -21.3941 -2.11428 -5.91416
upperneck 11.3725 -2.39779 7.43996
head 7.12849 -0.722798 3.12266
rclavicle -2.5842e-015 3.97569e-015
rhumerus -22.7039 -15.4812 -86.0711
rradius 23.9466
rwrist 21.1795
rhand -14.7785 -26.7307
rfingers 7.12502
rthumb 11.3784 -56.402
lclavicle -2.5842e-015 3.97569e-015
lhumerus -33.9666 33.4831 71.2466
lradius 21.1815
lwrist -38.5864
lhand -14.7275 22.1023
lfingers 7.12502
lthumb 11.4275 51.7708
rfemur -5.31611 -0.364175 26.6637
rtibia 34.7884
rfoot -10.842 -11.2888
rtoes 1.63411
lfemur -36.0278 -3.14584 -8.78425
ltibia 20.7751
lfoot -3.59522 7.22115
ltoes -3.02063
122
root 39.5793 17.2985 5.51285 77.1032 -83.8959 -64.8099
lowerback -1.18637 1.18095 4.45732
upperback -0.126821 1.51899 -0.611012
thorax 0.667593 0.772462 -3.0988
lowerneck -21.3273 -2.12435 -5.90676
upperneck 11.3004 -2.42382 7.49852
head 7.09679 -0.731449 3.13679
rclavicle 2.87244e-014 -1.27222e-014
rhumerus -22.7288 -15.6326 -86.0505
rradius 23.896
rwrist 21.3024
rhand -14.7764 -26.7184
rfingers 7.12502
rthumb 11.3804 -56.3896
lclavicle 2.87244e-014 -1.27222e-014
lhumerus -33.8394 33.3058 71.3536
lradius 21.1974
lwrist -38.5448
lhand -14.6609 22.0891
lfingers 7.12502
lthumb 11.4918 51.7541
rfemur -5.98499 -0.64994 26.2781
rtibia 36.31
rfoot -9.57593 -11.437
rtoes 1.2823
lfemur -35.5587 -3.29825 -9.18287
ltibia 20.9969
lfoot -3.58126 7.07325
ltoes -2.82851
123
root 39.4338 17.3123 5.53831 75.8329 -84.0392 -63.6292
lowerback -1.15669 1.1645 4.28526
upperback -0.10957 1.50105 -0.668468
thorax 0.664219 0.763483 -3.06215
lowerneck -21.2585 -2.13333 -5.89956
upperneck 11.2261 -2.44806 7.55617
head 7.06397 -0.739447 3.15084
rclavicle 1.91827e-014 -2.38542e-015
rhumerus -22.7555 -15.7479 -86.041
rradius 23.8683
rwrist 21.3984
rhand -14.778 -26.7067
rfingers 7.12502
rthumb 11.3789 -56.378
lclavicle 1.91827e-014 -2.38542e-015
lhumerus -33.6885 33.0884 71.4936
lradius 21.2324
lwrist -38.4716
lhand -14.5988 22.0738
lfingers 7.12502
lthumb 11.5516 51.7354
rfemur -6.69843 -0.936628 25.8895
rtibia 37.8479
rfoot -8.3129 -11.6004
rtoes 1.03502
lfemur -35.064 -3.45692 -9.58389
ltibia 21.1997
lfoot -3.5931 6.93026
ltoes -2.64027
124
root 39.2881 17.3264 5.56371 74.5195 -84.1834 -62.4096
lowerback -1.12588 1.14724 4.11105
upperback -0.0910359 1.48193 -0.725207
thorax 0.661421 0.753892 -3.02355
lowerneck -21.1896 -2.14132 -5.89504
upperneck 11.1506 -2.47066 7.61762
head 7.03074 -0.746519 3.16677
rclavicle -2.10712e-014 1.27222e-014
rhumerus -22.7812 -15.8232 -86.0445
rradius 23.8644
rwrist 21.4648
rhand -14.7839 -26.6905
rfingers 7.12502
rthumb 11.3732 -56.362
lclavicle -2.10712e-014 1.27222e-014
lhumerus -33.5131 32.8289 71.6676
lradius 21.2887
lwrist -38.3644
lhand -14.5401 22.0662
lfingers 7.12502
lthumb 11.6082 51.7247
rfemur -7.45554 -1.2216 25.5011
rtibia 39.3945
rfoot -7.07128 -11.7776
rtoes 0.882124
lfemur -34.544 -3.6205 -9.98504
ltibia 21.3793
lfoot -3.63126 6.79486
ltoes -2.45603
